<svg xmlns="http://www.w3.org/2000/svg"><symbol id="beauty" viewBox="0 0 70 100"><path d="M67.4015 55.6436H64.7128V51.8243C64.7128 50.6085 63.7272 49.6228 62.5114 49.6228H44.5881C43.372 49.6228 42.3867 50.6085 42.3867 51.8243V55.6436H39.6977C38.4819 55.6436 37.4963 56.6292 37.4963 57.845V92.3508C37.4963 96.5687 40.9279 100 45.1458 100H61.954C66.1716 100 69.6032 96.5687 69.6032 92.3508V57.845C69.6029 56.6292 68.6172 55.6436 67.4015 55.6436ZM46.7895 54.026H60.31V55.6439H46.7895V54.026ZM65.2001 92.3508C65.2001 94.141 63.7439 95.5972 61.9537 95.5972H45.1455C43.3553 95.5972 41.8988 94.141 41.8988 92.3508V60.0464H65.1998L65.2001 92.3508Z" fill="#000F08"/>
<path d="M29.9052 60.8448H27.2165V28.43C27.2165 27.2142 26.2309 26.2285 25.0151 26.2285H24.7281V10.243C24.7281 10.1497 24.7216 7.9295 24.1448 5.67642C22.8806 0.737621 20.0097 0 18.4106 0C16.3997 0 14.2332 1.80956 11.1653 6.05096C9.26708 8.67533 7.74634 11.2569 7.68235 11.3655C7.48364 11.7036 7.37914 12.0884 7.37914 12.4806V26.2282H7.09237C5.87631 26.2282 4.89096 27.2139 4.89096 28.4297V60.8445H2.20141C0.985647 60.8445 0 61.8301 0 63.0459V92.3502C0 96.5681 3.43127 99.9994 7.64948 99.9994H24.4574C28.6753 99.9994 32.1069 96.5681 32.1069 92.3502V63.0459C32.1066 61.8304 31.121 60.8448 29.9052 60.8448ZM11.7817 13.0855C14.2922 8.90986 17.3269 5.01101 18.5356 4.41692C19.6064 4.66113 20.3182 8.00611 20.3255 10.243V26.2285H11.7817V13.0855ZM9.2932 30.6314H22.8137V60.8448H9.2932V30.6314ZM27.7038 92.3508C27.7038 94.141 26.2473 95.5972 24.4571 95.5972H7.64918C5.85899 95.5972 4.40254 94.141 4.40254 92.3508V65.2479H27.7035L27.7038 92.3508Z" fill="#000F08"/>
</symbol><symbol id="denim" viewBox="0 0 46 100"><path d="M41.9768 6.57685V1.19523C41.9768 0.535222 41.4416 0 40.7816 0H5.21813C4.55813 0 4.02291 0.535222 4.02291 1.19523V6.57804C3.67294 8.10722 0.791016 21.3345 0.791016 41.7017V98.8048C0.791016 99.4645 1.32624 100 1.98624 100H20.1262C20.7864 100 21.3214 99.4645 21.3214 98.8048C21.3214 98.3962 21.3446 64.4248 23.0002 42.4042C24.6556 64.4248 24.6786 98.3962 24.6786 98.8048C24.6786 99.4645 25.2138 100 25.8738 100H44.0142C44.6742 100 45.2094 99.4645 45.2094 98.8048V41.7014C45.2092 21.33 42.3256 8.10124 41.9768 6.57685ZM6.41336 2.39045H13.0861V5.51477H6.41336V2.39045ZM6.17981 7.90522H10.3978V11.0907C10.3978 11.2334 10.37 11.3927 10.168 11.5911C9.50134 12.2458 7.65735 12.6799 5.29965 12.7698C5.66132 10.4886 5.98331 8.843 6.17981 7.90522ZM18.9336 97.6096H3.18147V94.6954H18.9477C18.94 95.9231 18.9357 96.9115 18.9336 97.6096ZM21.8048 30.8528C19.5895 45.5472 19.0816 78.3387 18.9654 92.3047H7.8909L7.88851 92.0553C7.88229 91.3994 7.34826 90.8713 6.69352 90.8713H6.68204C6.0218 90.8778 5.49184 91.418 5.49805 92.0778L5.5002 92.3047H3.18147V41.7014C3.18147 30.3071 4.09103 21.1985 4.94012 15.1748C5.31734 15.1679 5.70339 15.1519 6.09208 15.1268C6.11049 16.4191 7.25384 16.4112 7.28491 16.4112C7.90309 16.4112 8.42684 15.935 8.47536 15.3085C8.48851 15.1371 8.50213 14.9733 8.51576 14.8141C9.85441 14.5351 11.0606 14.0654 11.8437 13.2962C12.4619 12.6888 12.7887 11.9262 12.7887 11.0907V7.90522H21.8052V30.8528H21.8048ZM21.8048 5.51477H15.4765V2.39045H21.8048V5.51477ZM40.7008 12.7703C38.3421 12.6802 36.4984 12.2463 35.8317 11.5911C35.6297 11.3927 35.602 11.2337 35.602 11.091V7.90522H39.8204C40.0167 8.843 40.3389 10.4888 40.7008 12.7703ZM32.9139 2.39045H39.5864V5.51477H32.9139V2.39045ZM24.1952 2.39045H30.5237V5.51477H24.1952V2.39045ZM24.1952 7.90522H26.197V17.4116C26.197 19.2525 25.7777 20.6014 24.9845 21.3121C24.7276 21.5425 24.4527 21.6876 24.1952 21.7806V7.90522ZM42.8187 97.6096H27.0664C27.064 96.9115 27.0599 95.9231 27.0518 94.6954H42.8187V97.6096ZM42.8187 92.3047H40.4998L40.5019 92.0778C40.5081 91.418 39.9782 90.8778 39.3179 90.8713H39.3067C38.6517 90.8713 38.1177 91.3994 38.1115 92.0553L38.1091 92.3047H27.0344C26.9182 78.3382 26.4102 45.5472 24.1952 30.8528V24.2483C24.8856 24.1249 25.7409 23.8252 26.5326 23.1343C27.8961 21.9441 28.5874 20.0191 28.5874 17.4118V7.90522H33.2115V11.0907C33.2115 11.926 33.5383 12.6888 34.1565 13.2962C34.9398 14.0661 36.1472 14.5359 37.4871 14.8146C37.5 14.9649 37.5127 15.1184 37.5251 15.279C37.5734 15.9056 38.0971 16.3818 38.7151 16.3818C39.0055 16.3818 39.895 16.2914 39.9072 15.1268C40.2961 15.1519 40.6826 15.1679 41.0601 15.1748C41.9092 21.1983 42.8185 30.3071 42.8185 41.7014V92.3047H42.8187Z" fill="#000F08"/>
</symbol><symbol id="dress" viewBox="0 0 64 100"><path d="M10.9147 50.5466L0.571289 100H63.4304L53.087 50.5466C52.9149 49.7245 52.6749 48.9112 52.3734 48.1295L47.2985 34.9659L49.058 22.6816L53.5144 23.1146L56.0831 12.0481C56.643 9.63618 56.1784 7.07006 54.8087 5.00761C53.4393 2.94515 51.2546 1.52153 48.8146 1.10138L42.4176 0L41.6801 2.01055C40.1971 6.0522 36.3076 8.76736 32.0007 8.76736C27.6939 8.76736 23.8043 6.0522 22.3214 2.01055L21.5839 0L15.1871 1.10087C12.7471 1.52102 10.5623 2.94464 9.19294 5.00709C7.82329 7.06955 7.35868 9.63592 7.91862 12.0476L10.4873 23.1141L14.9437 22.6811L16.7032 34.9654L11.6285 48.1287C11.3268 48.9112 11.0868 49.7245 10.9147 50.5466ZM14.475 17.5635L12.9252 10.8861C12.6803 9.83096 12.8753 8.75271 13.4746 7.85048C14.0739 6.94826 14.9915 6.35003 16.0592 6.16629L18.3892 5.7649C21.0509 10.7095 26.2805 13.907 32.001 13.907C37.7214 13.907 42.9508 10.7098 45.6128 5.7649L47.9427 6.16629C49.0102 6.35003 49.9281 6.948 50.5273 7.85048C51.1266 8.75297 51.3216 9.83096 51.0768 10.8861L49.527 17.5635L44.6671 17.0914L42.7665 30.3609H21.2362L19.3356 17.0914L14.475 17.5635ZM16.4239 49.9782L20.9155 38.3268H43.0857L47.5776 49.9782C47.7795 50.5024 47.9407 51.0479 48.056 51.5991L57.1045 94.8608H6.89665L15.9451 51.5996C16.0605 51.0479 16.2216 50.5024 16.4239 49.9782Z" fill="#000F08"/>
</symbol><symbol id="swimwear" viewBox="0 0 58 100"><path d="M53.6624 59.7257C51.7628 55.5859 49.662 51.9446 48.5788 50.1431C50.0378 47.036 53.7925 38.9793 55.0052 35.7915C57.2574 29.8719 53.3596 14.8621 52.5553 11.9132L51.7641 9.01239L51.6353 9.07376V0H46.6052V11.4661L33.4757 17.7104C30.6164 19.0705 27.3365 19.0703 24.4772 17.7104L11.3944 11.4882V0H6.36434V9.09589L6.18879 9.01239L5.39756 11.9132C4.59325 14.8621 0.695186 29.8719 2.9474 35.7913C4.16066 38.9806 7.91838 47.0431 9.37585 50.1471C8.30193 51.9446 6.21922 55.5771 4.33244 59.7111C0.518378 68.0673 -0.471039 73.9399 1.30709 77.6652C3.41721 82.0851 11.9736 86.1351 14.8428 87.3923C16.2998 89.2479 21.4151 95.7913 23.5644 98.9117L24.3139 100H33.5394L34.2856 98.8755C36.4181 95.6613 41.6297 88.9318 43.1393 86.9932C46.0471 85.8074 54.5047 82.0514 56.6536 77.6944C58.485 73.9812 57.5067 68.1035 53.6624 59.7257ZM29 24.8496C31.7735 24.8496 34.03 27.1061 34.03 29.8797C34.03 32.6533 31.7735 34.9098 29 34.9098C26.2264 34.9098 23.9699 32.6533 23.9699 29.8797C23.9699 27.1061 26.2264 24.8496 29 24.8496ZM52.1426 75.4693C51.0538 77.677 44.6475 81.0097 40.6617 82.5667L40.0201 82.817L39.5956 83.359C39.3395 83.6857 33.8067 90.7542 30.8626 94.9702H26.9401C24.025 90.9111 18.648 84.0926 18.3996 83.7772L17.9982 83.2692L17.4026 83.0177C13.379 81.319 6.92419 77.7545 5.84725 75.4982C3.90463 71.4286 9.65351 59.0984 14.3559 51.6433L15.0938 50.4746L14.5028 49.2251C14.4484 49.1104 9.06524 37.7233 7.64978 34.0028C6.53712 31.0786 7.99937 22.4744 9.50713 16.1601L22.3177 22.2528C22.3469 22.2667 22.3771 22.2782 22.4063 22.2921C20.2853 24.1378 18.9405 26.8538 18.9405 29.8797C18.9405 35.4268 23.4535 39.9398 29.0007 39.9398C34.5479 39.9398 39.0609 35.4268 39.0609 29.8797C39.0609 26.8463 37.7095 24.1243 35.5793 22.2782C35.5984 22.2692 35.6178 22.2619 35.6369 22.2528L48.4475 16.1601C49.9553 22.4741 51.4175 31.0783 50.3046 34.0028C48.8894 37.7231 43.506 49.1104 43.4516 49.2251L42.8586 50.4789L43.6025 51.6496C43.632 51.6961 46.5849 56.3608 49.0914 61.8234C53.3458 71.0972 52.6423 74.4557 52.1426 75.4693Z" fill="#000F08"/>
</symbol><symbol id="tees" viewBox="0 0 100 92"><path d="M99.1628 34.8319L90.911 13.5194C89.504 9.88474 86.4218 7.09276 82.6661 6.05016L60.8719 0.000310221V12.2766C60.8719 18.2715 55.9947 23.1487 49.9998 23.1487C44.0049 23.1487 39.1277 18.2715 39.1277 12.2766V0L17.3335 6.05016C13.5778 7.09276 10.4959 9.88474 9.08859 13.5194L0.837135 34.8316C-0.640331 38.6469 -0.141531 42.9396 2.17058 46.3148C4.483 49.69 8.30641 51.7051 12.3977 51.7051H18.7405L14.7191 91.0432H85.4571L81.3208 51.7054H87.6022C91.6938 51.7054 95.5169 49.6903 97.8293 46.3151C100.142 42.9396 100.64 38.6469 99.1628 34.8319ZM92.7082 42.8065C91.5365 44.5167 89.6753 45.4976 87.6022 45.4976H81.679L80.2518 27.948H72.5805L78.5621 84.8354H21.5937L27.4092 27.948H19.7208L18.4599 45.4976H12.3977C10.3246 45.4976 8.46346 44.5167 7.29174 42.8065C6.12032 41.0962 5.87728 39.0066 6.62594 37.0732L14.8777 15.7608C15.5804 13.9462 17.1194 12.5522 18.9941 12.0317L32.9199 8.1661V12.2763C32.9199 21.6942 40.5822 29.3562 49.9998 29.3562C59.4174 29.3562 67.0797 21.6939 67.0797 12.2763V8.1661L81.0055 12.0317C82.8802 12.5522 84.4192 13.9462 85.1219 15.7608L93.3737 37.0735C94.1226 39.0063 93.8799 41.0962 92.7082 42.8065Z" fill="#000F08"/>
</symbol><symbol id="tops" viewBox="0 0 72 100"><path d="M71.1376 90.2739C66.3283 78.0976 56.707 62.9796 54.9761 60.3001L57.5026 41.543C61.8438 36.8323 60.8909 29.7708 60.4952 27.7106L62.7949 24.091C62.8885 23.9432 62.9522 23.7788 62.9818 23.6067L65.9831 6.20047C66.1004 5.51927 65.6733 4.8624 65.0029 4.69401C59.0696 3.20289 52.9431 0.169369 52.882 0.138971C52.2323 -0.184577 51.4427 0.0763229 51.1141 0.723947C47.7838 7.28583 36.1575 7.01885 36.0401 7.01436C36.025 7.01383 36.011 7.01753 35.996 7.01753C35.9835 7.01726 35.9719 7.01409 35.9595 7.01436C35.8426 7.01753 24.2158 7.28583 20.8854 0.723947C20.5569 0.0763229 19.767 -0.184841 19.1176 0.138971C19.0565 0.169369 12.9392 3.20078 6.99695 4.69401C6.32659 4.86266 5.89916 5.51927 6.01653 6.20047L9.01754 23.6067C9.04714 23.7788 9.11085 23.9432 9.20442 24.091L11.5102 27.7201C11.1441 29.7766 10.2557 36.9219 14.497 41.5422L17.0235 60.3001C15.2929 62.9799 5.67157 78.0978 0.861971 90.2739C0.705219 90.6707 0.749628 91.1188 0.981451 91.4772C1.27169 91.926 3.85109 95.4919 12.4822 95.4919C12.8911 95.4919 13.3164 95.4822 13.7534 95.4652C13.6096 96.0521 13.4682 96.6204 13.3297 97.1657C13.1586 97.8392 13.5385 98.5302 14.1991 98.7467C14.4293 98.8223 18.0954 99.9997 22.4664 99.9997C24.7524 99.9994 27.2319 99.6772 29.5123 98.7068C30.0066 98.4964 30.3204 98.0084 30.3138 97.4745H41.6858C41.6792 98.0087 41.993 98.4964 42.4873 98.7068C44.768 99.6775 47.2469 99.9997 49.5332 99.9997C53.9037 99.9997 57.57 98.8223 57.8005 98.7467C58.4611 98.5302 58.841 97.839 58.6699 97.1657C58.5317 96.6207 58.39 96.0526 58.2462 95.4658C58.6834 95.483 59.1082 95.4919 59.5177 95.4919C68.1475 95.4917 70.7282 91.9263 71.0184 91.4772C71.25 91.1188 71.2944 90.6707 71.1376 90.2739ZM16.6841 40.0048C13.5636 36.8844 13.677 31.7811 13.9635 29.2609L15.553 29.8527C15.705 29.9093 15.8609 29.936 16.0143 29.936C16.5503 29.936 17.0549 29.6074 17.2529 29.0753C17.5078 28.3912 17.1596 27.6302 16.4758 27.3754L13.7872 26.3741L11.5774 22.8965L8.82695 6.94193C13.1486 5.72995 17.2677 3.92532 19.1842 3.03583C23.7569 9.82795 35.1009 9.68098 36.0013 9.65719C36.9172 9.68019 48.2469 9.82267 52.8159 3.03583C54.7324 3.92532 58.8515 5.72995 63.1734 6.94193L60.4222 22.8965L58.2126 26.3741L55.5243 27.3754C54.8402 27.6302 54.4924 28.3912 54.7472 29.0753C54.9454 29.6074 55.4498 29.936 55.9859 29.936C56.1392 29.936 56.2951 29.9091 56.4471 29.8527L58.0606 29.2516C58.377 31.733 58.5349 36.786 55.316 40.0051C55.1114 40.2097 54.9795 40.4762 54.9409 40.7632L52.4459 59.2874H51.3917V44.8409C51.3917 44.1108 50.7999 43.5192 50.07 43.5192C49.3402 43.5192 48.7483 44.1108 48.7483 44.8409V59.2874H36.0002H23.2518V44.8409C23.2518 44.1108 22.6599 43.5192 21.9301 43.5192C21.2003 43.5192 20.6084 44.1108 20.6084 44.8409V59.2874H19.5545L17.0594 40.7632C17.0206 40.4759 16.8887 40.2094 16.6841 40.0048ZM3.63169 90.4698C8.33767 78.9244 17.1689 64.9579 19.1173 61.9305H20.6082V63.5599C20.2941 65.1514 17.0941 81.3122 14.3957 92.7865C7.65092 93.1914 4.66075 91.3538 3.63169 90.4698ZM44.3685 96.5958L45.5393 70.6961C45.5723 69.9668 45.0077 69.3491 44.2784 69.316C43.5499 69.2838 42.9314 69.8476 42.8983 70.5769L41.8018 94.8314H30.1978L29.1013 70.5769C29.0682 69.8479 28.4478 69.287 27.7212 69.316C26.9919 69.3491 26.4275 69.9668 26.4603 70.6961L27.631 96.5956C23.4149 98.0108 18.4369 97.1028 16.2064 96.5583C19.1607 84.6053 23.1846 64.1562 23.2264 63.9437C23.2431 63.8599 23.2513 63.7742 23.2513 63.6889V61.9305H35.9997H48.7478V63.6889C48.7478 63.7742 48.756 63.8596 48.7727 63.9437C48.8144 64.1565 52.8389 84.6074 55.7932 96.5599C53.5653 97.1068 48.595 98.0169 44.3685 96.5958ZM57.6039 92.7867C54.9055 81.3127 51.7055 65.1512 51.3914 63.5601V61.9308H52.8826C54.831 64.9582 63.6622 78.9247 68.3682 90.4701C67.3394 91.3535 64.3492 93.1914 57.6039 92.7867Z" fill="#000F08"/>
</symbol></svg>