<?xml version="1.0" encoding="UTF-8"?>
<svg xmlns="http://www.w3.org/2000/svg" xmlns:xlink="http://www.w3.org/1999/xlink" width="24px" height="24px" viewBox="0 0 24 24" version="1.1">
<defs>
<radialGradient id="radial0" gradientUnits="userSpaceOnUse" cx="56.3501" cy="19.2179" fx="56.3501" fy="19.2179" r="711.335" gradientTransform="matrix(0.0468094,-0.00245325,0.00208526,0.0397875,-1.733166,20.803191)">
<stop offset="0" style="stop-color:rgb(99.607843%,83.529412%,46.27451%);stop-opacity:1;"/>
<stop offset="0.2634" style="stop-color:rgb(95.686275%,44.313725%,20%);stop-opacity:1;"/>
<stop offset="0.6091" style="stop-color:rgb(73.72549%,18.823529%,50.588235%);stop-opacity:1;"/>
<stop offset="1" style="stop-color:rgb(29.803922%,38.823529%,82.352941%);stop-opacity:1;"/>
</radialGradient>
<radialGradient id="radial1" gradientUnits="userSpaceOnUse" cx="154.0732" cy="134.5501" fx="154.0732" fy="134.5501" r="365.2801" gradientTransform="matrix(0.0468094,-0.00245325,0.00208526,0.0397875,-1.141955,11.873184)">
<stop offset="0" style="stop-color:rgb(99.607843%,83.529412%,46.27451%);stop-opacity:1;"/>
<stop offset="0.2634" style="stop-color:rgb(95.686275%,44.313725%,20%);stop-opacity:1;"/>
<stop offset="0.6091" style="stop-color:rgb(73.72549%,18.823529%,50.588235%);stop-opacity:1;"/>
<stop offset="1" style="stop-color:rgb(29.803922%,38.823529%,82.352941%);stop-opacity:1;"/>
</radialGradient>
</defs>
<g id="surface1">
<path style=" stroke:none;fill-rule:nonzero;fill:url(#radial0);" d="M 4.503906 1.085938 C 3.746094 1.382812 3.101562 1.777344 2.460938 2.417969 C 1.820312 3.054688 1.425781 3.703125 1.128906 4.457031 C 0.84375 5.1875 0.652344 6.027344 0.59375 7.257812 C 0.539062 8.484375 0.523438 8.878906 0.523438 12.007812 C 0.523438 15.140625 0.539062 15.535156 0.59375 16.761719 C 0.652344 17.992188 0.847656 18.828125 1.128906 19.5625 C 1.425781 20.320312 1.820312 20.960938 2.460938 21.605469 C 3.101562 22.246094 3.746094 22.640625 4.503906 22.9375 C 5.234375 23.222656 6.074219 23.414062 7.304688 23.46875 C 8.53125 23.527344 8.925781 23.539062 12.054688 23.539062 C 15.1875 23.539062 15.582031 23.527344 16.808594 23.46875 C 18.039062 23.414062 18.875 23.21875 19.609375 22.9375 C 20.367188 22.640625 21.007812 22.246094 21.652344 21.605469 C 22.292969 20.960938 22.6875 20.320312 22.984375 19.5625 C 23.269531 18.828125 23.460938 17.992188 23.515625 16.761719 C 23.574219 15.535156 23.585938 15.140625 23.585938 12.007812 C 23.585938 8.878906 23.574219 8.484375 23.515625 7.257812 C 23.460938 6.027344 23.265625 5.1875 22.984375 4.457031 C 22.6875 3.703125 22.292969 3.054688 21.65625 2.417969 C 21.015625 1.777344 20.371094 1.382812 19.613281 1.085938 C 18.882812 0.800781 18.042969 0.609375 16.8125 0.554688 C 15.585938 0.496094 15.191406 0.484375 12.0625 0.484375 C 8.929688 0.484375 8.535156 0.496094 7.308594 0.554688 C 6.074219 0.605469 5.234375 0.800781 4.503906 1.085938 Z M 16.714844 2.625 C 17.839844 2.675781 18.449219 2.863281 18.859375 3.023438 C 19.398438 3.234375 19.78125 3.484375 20.183594 3.886719 C 20.585938 4.289062 20.835938 4.671875 21.046875 5.210938 C 21.207031 5.621094 21.394531 6.230469 21.445312 7.355469 C 21.5 8.570312 21.511719 8.933594 21.511719 12.015625 C 21.511719 15.09375 21.496094 15.460938 21.445312 16.671875 C 21.394531 17.796875 21.207031 18.40625 21.046875 18.816406 C 20.835938 19.355469 20.585938 19.738281 20.183594 20.140625 C 19.78125 20.546875 19.398438 20.792969 18.859375 21.003906 C 18.449219 21.164062 17.839844 21.351562 16.714844 21.402344 C 15.5 21.460938 15.136719 21.46875 12.054688 21.46875 C 8.976562 21.46875 8.609375 21.453125 7.398438 21.402344 C 6.273438 21.351562 5.664062 21.164062 5.253906 21.003906 C 4.714844 20.792969 4.332031 20.546875 3.929688 20.140625 C 3.523438 19.738281 3.277344 19.355469 3.066406 18.816406 C 2.90625 18.40625 2.71875 17.796875 2.667969 16.671875 C 2.609375 15.460938 2.601562 15.09375 2.601562 12.015625 C 2.601562 8.933594 2.617188 8.570312 2.667969 7.355469 C 2.71875 6.230469 2.90625 5.621094 3.066406 5.210938 C 3.277344 4.671875 3.523438 4.289062 3.929688 3.886719 C 4.332031 3.484375 4.714844 3.234375 5.253906 3.023438 C 5.664062 2.863281 6.273438 2.675781 7.398438 2.625 C 8.609375 2.570312 8.976562 2.558594 12.054688 2.558594 C 15.136719 2.558594 15.5 2.570312 16.714844 2.625 Z M 16.714844 2.625 "/>
<path style=" stroke:none;fill-rule:nonzero;fill:url(#radial1);" d="M 6.136719 12.015625 C 6.136719 15.285156 8.789062 17.933594 12.054688 17.933594 C 15.324219 17.933594 17.976562 15.28125 17.976562 12.015625 C 17.976562 8.746094 15.328125 6.09375 12.054688 6.09375 C 8.785156 6.09375 6.136719 8.742188 6.136719 12.015625 Z M 15.898438 12.015625 C 15.898438 14.136719 14.179688 15.859375 12.054688 15.859375 C 9.933594 15.859375 8.210938 14.136719 8.210938 12.015625 C 8.210938 9.890625 9.933594 8.171875 12.054688 8.171875 C 14.179688 8.171875 15.898438 9.890625 15.898438 12.015625 Z M 15.898438 12.015625 "/>
<path style=" stroke:none;fill-rule:nonzero;fill:rgb(39.607843%,29.803922%,62.352941%);fill-opacity:1;" d="M 19.597656 5.859375 C 19.597656 6.625 18.980469 7.242188 18.214844 7.242188 C 17.453125 7.242188 16.832031 6.625 16.832031 5.859375 C 16.832031 5.09375 17.453125 4.476562 18.214844 4.476562 C 18.980469 4.476562 19.597656 5.09375 19.597656 5.859375 Z M 19.597656 5.859375 "/>
</g>
</svg>
